<?xml version="1.0" encoding="UTF-8"?>
<svg id="Layer_1" data-name="Layer 1" xmlns="http://www.w3.org/2000/svg" version="1.1" viewBox="0 0 47.4 47.7">
  <defs>
    <style>
      .cls-1 {
        fill: #a09a98;
        stroke-width: 0px;
      }
    </style>
  </defs>
  <path class="cls-1" d="M46.9,38c0,1-.4,1.9-1.1,2.7l-5.3,5.3c-.7.7-1.6,1.1-2.7,1.1s-1.9-.4-2.7-1.1l-11.5-11.5-11.5,11.5c-.7.7-1.6,1.1-2.7,1.1s-1.9-.4-2.7-1.1l-5.3-5.3c-.7-.7-1.1-1.6-1.1-2.7s.4-1.9,1.1-2.7l11.5-11.5L1.6,12.4c-.7-.7-1.1-1.6-1.1-2.7s.4-1.9,1.1-2.7L6.9,1.7c.7-.7,1.6-1.1,2.7-1.1s1.9.4,2.7,1.1l11.5,11.5L35.2,1.7c.7-.7,1.6-1.1,2.7-1.1s1.9.4,2.7,1.1l5.3,5.3c.7.7,1.1,1.6,1.1,2.7s-.4,1.9-1.1,2.7l-11.5,11.5,11.5,11.5c.7.7,1.1,1.6,1.1,2.7Z"/>
</svg>