<?xml version="1.0" encoding="UTF-8"?>
<svg id="Layer_1" data-name="Layer 1" xmlns="http://www.w3.org/2000/svg" viewBox="0 0 1170 159.88">
  <defs>
    <style>
      .cls-1 {
        fill: #eaeae6;
      }

      .cls-1, .cls-2 {
        stroke-width: 0px;
      }

      .cls-2 {
        fill: #fff;
      }
    </style>
  </defs>
  <rect class="cls-2" x="0" width="1170" height="159.88"/>
  <polygon class="cls-1" points="0 46.04 0 53.45 170.78 60.8 581.94 38.84 1021.08 45.7 1170 32.4 1170 0 170.74 53.39 0 46.04"/>
  <polygon class="cls-1" points="0 153.34 0 159.88 472.57 159.88 124.78 141.48 0 153.34"/>
  <polygon class="cls-1" points="1170 159.88 1170 146.65 1038.87 159.88 1170 159.88"/>
  <polygon class="cls-1" points="0 145.91 124.63 134.07 613.19 159.88 1037.47 159.88 0 109.89 0 145.91"/>
  <polygon class="cls-1" points="0 145.91 0 153.34 124.78 141.48 472.57 159.88 613.19 159.88 124.63 134.07 0 145.91"/>
</svg>