<?xml version="1.0" encoding="UTF-8"?>
<svg id="Layer_1" data-name="Layer 1" xmlns="http://www.w3.org/2000/svg" version="1.1" viewBox="0 0 39.72 38.82">
  <defs>
    <style>
      .cls-1 {
        fill: #ccc7c2;
        stroke-width: 0px;
      }
    </style>
  </defs>
  <g id="ZaOCSX">
    <g>
      <path class="cls-1" d="M19.35,28.3c-4.97-.22-8.91-4.5-8.61-9.54.32-5.38,4.89-8.94,9.68-8.59,5.27.39,8.74,4.84,8.47,9.52-.31,5.46-4.96,8.89-9.54,8.61Z"/>
      <path class="cls-1" d="M27.86,9.92c-.01-.33.11-.62.35-.85,1.11-1.11,2.23-2.23,3.34-3.34.44-.44.99-.52,1.54-.31.57.22.84.72.91,1.3.05.39-.15.71-.43.98-.48.46-.96.93-1.44,1.39-.45.44-.93.85-1.35,1.32-.37.41-.84.61-1.33.75-.78.22-1.6-.43-1.59-1.24Z"/>
      <path class="cls-1" d="M10.59,11.21c-.51,0-.82-.15-1.08-.4-1.12-1.11-2.23-2.23-3.35-3.34-.78-.77-.37-2.04.73-2.28.39-.09.74.05,1.03.29.21.18.4.38.6.58.89.89,1.79,1.77,2.67,2.68.21.22.4.5.5.78.29.81-.37,1.69-1.1,1.69Z"/>
      <path class="cls-1" d="M33.65,31.86c-.03.42-.16.85-.63,1.08-.48.24-.96.23-1.42-.08-.11-.07-.2-.16-.29-.25-1.06-1.06-2.12-2.12-3.18-3.18-.37-.38-.59-.8-.43-1.35.24-.81,1.33-1.48,2.21-.62,1.13,1.09,2.23,2.22,3.34,3.33.27.27.4.62.4,1.07Z"/>
      <path class="cls-1" d="M11.9,28.7c-.09.17-.18.49-.39.7-1.08,1.12-2.19,2.22-3.29,3.31-.45.45-1,.53-1.59.29-.86-.36-1.07-1.39-.41-2.05,1.09-1.11,2.2-2.2,3.3-3.3.09-.09.19-.18.3-.25.42-.28.87-.31,1.31-.06.46.26.72.68.76,1.36Z"/>
      <path class="cls-1" d="M4.27,17.92c.76,0,1.52.02,2.28,0,.8-.03,1.37.58,1.36,1.29-.02.72-.6,1.35-1.34,1.36-1.55.02-3.11.02-4.66,0-1.07-.02-1.67-1.11-1.13-2.02.25-.42.63-.61,1.11-.61.8,0,1.59,0,2.39,0h0Z"/>
      <path class="cls-1" d="M18.39,3.61c0-.76.02-1.52,0-2.28-.03-.98.95-1.6,1.87-1.21.52.22.76.63.77,1.18,0,.93,0,1.86,0,2.78,0,.59-.01,1.19,0,1.78.02.56-.3.95-.66,1.3-.28.27-.66.21-1,.09-.57-.19-.97-.75-.98-1.35-.01-.76,0-1.52,0-2.28Z"/>
      <path class="cls-1" d="M21.14,34.78c0,.78.02,1.56,0,2.33-.02.48-.16.91-.67,1.11-.56.22-1.09.19-1.56-.21-.25-.21-.39-.5-.39-.83,0-1.61-.02-3.22,0-4.83,0-.71.54-1.18,1.27-1.19.76-.01,1.32.45,1.35,1.17.03.81,0,1.63,0,2.44,0,0,0,0,0,0Z"/>
      <path class="cls-1" d="M35.35,17.92c.74,0,1.48.02,2.22,0,.84-.03,1.35.56,1.38,1.28.03.74-.59,1.35-1.39,1.36-1.5,0-3,.02-4.5,0-1-.01-1.58-.89-1.25-1.82.17-.48.59-.8,1.15-.81.8-.02,1.59,0,2.39,0h0Z"/>
    </g>
  </g>
</svg>