<?xml version="1.0" encoding="UTF-8"?>
<svg id="Layer_1" data-name="Layer 1" xmlns="http://www.w3.org/2000/svg" version="1.1" viewBox="0 0 39.72 38.82">
  <defs>
    <style>
      .cls-1 {
        fill: #1c1b1b;
        stroke-width: 0px;
      }
    </style>
  </defs>
  <g>
    <path class="cls-1" d="M36.95,7.64c0,.34-.2.61-.55.74-.39.15-.79.28-1.19.42-.42.15-.85.3-1.27.45-.32.11-.52.31-.64.63-.26.76-.54,1.51-.81,2.26-.02.04-.03.09-.05.13-.14.37-.42.58-.78.58-.36,0-.64-.21-.77-.58-.21-.59-.42-1.18-.64-1.78-.07-.2-.15-.39-.21-.59-.11-.33-.32-.55-.65-.66-.75-.26-1.5-.52-2.25-.79-.09-.03-.19-.06-.28-.1-.32-.14-.47-.39-.48-.72,0-.33.16-.6.47-.72.4-.16.81-.29,1.22-.44.44-.15.87-.31,1.31-.46.33-.11.54-.33.66-.66.25-.73.52-1.46.78-2.18.03-.08.05-.15.08-.23.13-.33.4-.52.74-.53.36,0,.63.16.77.51.17.44.33.89.49,1.33.13.36.27.73.39,1.09.11.35.34.56.68.68.81.27,1.61.56,2.42.85.37.13.56.41.56.77Z"/>
    <path class="cls-1" d="M23.17,17.04c-.25,0-.43-.12-.53-.37-.13-.36-.28-.71-.38-1.08-.12-.41-.35-.66-.77-.77-.38-.1-.74-.25-1.11-.38-.33-.12-.46-.45-.32-.74.08-.16.22-.25.38-.3.4-.14.79-.28,1.19-.41.29-.09.48-.27.57-.57.12-.37.26-.74.39-1.11,0-.02.01-.03.02-.05.1-.3.26-.43.55-.45.24-.02.44.16.54.45.15.4.29.8.43,1.2.09.26.25.42.51.5.43.14.86.29,1.29.45.34.13.48.46.32.77-.07.14-.2.22-.34.27-.42.15-.84.3-1.26.44-.26.08-.42.24-.51.5-.14.42-.3.84-.45,1.25-.1.27-.27.4-.52.4Z"/>
    <path class="cls-1" d="M28.49,17.13c.17,0,.28.1.33.25.09.25.19.51.27.76.07.22.2.35.42.42.26.08.51.18.77.27.2.07.31.2.29.36-.02.18-.13.28-.3.34-.27.09-.53.19-.8.28-.18.06-.29.17-.35.35-.09.26-.19.52-.28.78-.06.17-.16.3-.36.3-.18,0-.29-.09-.37-.31-.09-.25-.19-.51-.27-.76-.06-.18-.18-.3-.37-.36-.26-.08-.52-.18-.78-.27-.2-.07-.31-.19-.31-.35,0-.16.1-.28.31-.35.27-.1.53-.19.8-.28.18-.06.29-.17.35-.35.09-.27.19-.54.3-.81.07-.18.18-.26.35-.26Z"/>
  </g>
  <g id="IZk3D6">
    <path class="cls-1" d="M18.36,35.95c-7.63-.01-14.38-5.8-15.6-13.64C1.58,14.7,5.99,7.31,13.25,4.74c.39-.14.75-.21,1.01.19.24.37.07.68-.19.98-2.39,2.82-3.58,6.08-3.56,9.77.03,6.85,5.19,13,11.92,14.25,2.46.46,4.88.34,7.27-.43.08-.03.17-.05.25-.08.33-.09.62-.05.81.26.18.3.16.6-.09.84-.71.69-1.4,1.42-2.18,2.03-2.88,2.25-6.18,3.35-10.13,3.4Z"/>
  </g>
</svg>