<?xml version="1.0" encoding="UTF-8"?>
<svg id="Layer_1" data-name="Layer 1" xmlns="http://www.w3.org/2000/svg" version="1.1" viewBox="0 0 44.46 45.11">
  <defs>
    <style>
      .cls-1 {
        fill: #eaeae6;
        stroke-width: 0px;
      }
    </style>
  </defs>
  <path class="cls-1" d="M14.46,2.63c2.6-1.12,5.32-1.67,8.16-1.67s5.57.56,8.16,1.67c2.59,1.12,4.83,2.61,6.71,4.49,1.88,1.88,3.38,4.12,4.49,6.71,1.12,2.6,1.67,5.32,1.67,8.16s-.56,5.57-1.67,8.16-2.61,4.83-4.49,6.71-4.12,3.38-6.71,4.49-5.32,1.67-8.16,1.67c-3.63,0-7.02-.87-10.18-2.62l-11.64,3.74,3.79-11.3c-2.01-3.31-3.01-6.93-3.01-10.85,0-2.85.56-5.57,1.67-8.16,1.12-2.59,2.61-4.83,4.49-6.71,1.88-1.88,4.12-3.38,6.71-4.49ZM22.62,39.52c2.36,0,4.63-.46,6.79-1.4,2.17-.93,4.03-2.18,5.59-3.74s2.81-3.43,3.74-5.59,1.4-4.43,1.4-6.79-.46-4.63-1.4-6.79c-.93-2.17-2.18-4.03-3.74-5.59s-3.43-2.81-5.59-3.74c-2.17-.93-4.43-1.4-6.79-1.4s-4.63.47-6.79,1.4c-2.17.93-4.03,2.18-5.59,3.74s-2.81,3.43-3.74,5.59c-.93,2.17-1.4,4.43-1.4,6.79,0,3.78,1.12,7.2,3.35,10.27l-2.2,6.5,6.75-2.15c2.94,1.93,6.15,2.9,9.63,2.9ZM26.83,26.09c.73-.9,1.21-1.35,1.45-1.35s1.15.41,2.72,1.23c1.57.82,2.4,1.31,2.5,1.48.04.09.06.23.06.42,0,.61-.16,1.32-.47,2.12-.3.73-.96,1.33-1.98,1.83-1.02.49-1.97.74-2.85.74-1.06,0-2.83-.58-5.3-1.73-1.82-.84-3.4-1.93-4.74-3.29-1.34-1.36-2.72-3.08-4.13-5.16-1.34-1.99-2-3.79-1.98-5.41v-.22c.06-1.69.74-3.16,2.06-4.41.45-.41.93-.61,1.45-.61.11,0,.28.01.5.04.22.03.4.04.53.04.35,0,.6.06.74.18.14.12.28.38.43.77.15.37.46,1.19.92,2.46.46,1.27.7,1.96.7,2.09,0,.39-.32.93-.96,1.6-.64.68-.96,1.11-.96,1.3,0,.13.05.27.14.42.63,1.36,1.58,2.63,2.85,3.82,1.04.99,2.45,1.93,4.21,2.82.22.13.43.2.61.2.28,0,.78-.45,1.51-1.35Z"/>
</svg>