<?xml version="1.0" encoding="UTF-8"?>
<svg id="Layer_1" data-name="Layer 1" xmlns="http://www.w3.org/2000/svg" version="1.1" viewBox="0 0 305.96 72.91">
  <defs>
    <style>
      .cls-1 {
        fill: #eaeae6;
        stroke-width: 0px;
      }
    </style>
  </defs>
  <path class="cls-1" d="M155.28,56.2c.96-1.44,1.44-3.17,1.44-5.16s-.47-3.73-1.42-5.18c-.95-1.46-2.3-2.58-4.05-3.38-1.75-.79-3.82-1.19-6.2-1.19h-11.63v5.07h11.28c1.87,0,3.29.4,4.26,1.21.97.81,1.46,1.96,1.46,3.47s-.49,2.64-1.46,3.45c-.97.82-2.39,1.23-4.26,1.23h-5.07v-6.77l-6.22-2.59v21.81h6.22v-7.49h5.72l5.18,7.49h6.68l-6.03-8.64c1.76-.76,3.13-1.87,4.09-3.32Z"/>
  <polygon class="cls-1" points="168.04 56.95 180.52 56.95 180.52 52.12 168.04 52.12 168.04 46.28 182.17 46.28 182.17 41.29 161.86 41.29 161.86 68.16 182.67 68.16 182.67 63.17 168.04 63.17 168.04 56.95"/>
  <path class="cls-1" d="M86.93,5.19c-8.41,0-16.32,3.28-22.26,9.22l-1.09,1.09,6.81,6.79,1.09-1.09c4.12-4.12,9.61-6.4,15.45-6.4s11.33,2.28,15.46,6.41c4.13,4.13,6.41,9.62,6.41,15.47s-2.28,11.33-6.41,15.46c-8.52,8.52-22.4,8.52-30.92,0l-25.13-25.12-6.8,6.8,25.13,25.13c12.27,12.27,32.25,12.27,44.53,0,5.94-5.95,9.22-13.85,9.22-22.26s-3.28-16.32-9.23-22.26c-5.94-5.95-13.85-9.22-22.26-9.22Z"/>
  <polygon class="cls-1" points="180.55 27.1 167.3 27.1 167.3 5.21 161.19 5.21 161.19 32.08 180.55 32.08 180.55 27.1"/>
  <polygon class="cls-1" points="292.09 27.1 278.84 27.1 278.84 5.21 272.73 5.21 272.73 32.08 292.09 32.08 292.09 27.1"/>
  <path class="cls-1" d="M138.17,30.75c2.23,1.19,4.73,1.79,7.52,1.79,1.94,0,3.87-.29,5.79-.88,1.92-.59,3.61-1.43,5.07-2.53v-10.9h-5.6s-6.32,0-6.32,0l6.25,2.61v5.26c-1.43.77-3.05,1.15-4.84,1.15-1.69,0-3.19-.36-4.51-1.09-1.31-.73-2.34-1.75-3.09-3.05-.74-1.3-1.11-2.79-1.11-4.45s.37-3.19,1.11-4.49c.74-1.3,1.78-2.31,3.11-3.03,1.33-.72,2.85-1.07,4.57-1.07,2.71,0,5.03,1.01,6.95,3.03l3.99-3.69c-1.31-1.51-2.91-2.66-4.84-3.45-1.92-.79-4.06-1.19-6.41-1.19-2.82,0-5.35.6-7.6,1.79-2.25,1.19-4.01,2.84-5.28,4.95-1.27,2.11-1.9,4.5-1.9,7.16s.64,5.05,1.9,7.16c1.26,2.11,3.01,3.76,5.24,4.95Z"/>
  <path class="cls-1" d="M49.12,52.14c-8.52,8.52-22.4,8.52-30.93,0-8.52-8.53-8.52-22.4,0-30.92,8.53-8.53,22.4-8.53,30.93,0l23.36,23.35,6.8-6.8-23.36-23.36C43.63,2.14,23.66,2.14,11.39,14.41c-12.27,12.27-12.27,32.25,0,44.52,12.27,12.28,32.25,12.28,44.53,0l1.15-1.16-6.8-6.8-1.16,1.16Z"/>
  <polygon class="cls-1" points="279.75 53.23 272.58 41.29 265.97 41.29 276.38 58.56 276.38 68.16 282.59 68.16 282.59 58.64 293.04 41.29 286.93 41.29 279.75 53.23"/>
  <path class="cls-1" d="M301.02,42.74h-1.85v3.84h.68v-1.58h1.16l.24.29v1.29h.69v-1.38l-.23-.56.23-.59v-.41c0-.53-.4-.91-.91-.91ZM301.23,44.05l-.27.28h-1.13v-.95h1.21l.19.24v.44Z"/>
  <path class="cls-1" d="M258.19,5.21h-5.63l-11.98,26.87h6.26l2.34-5.66h12.27l2.34,5.66h6.42l-12.02-26.87ZM251.14,21.77l4.19-10.12,4.19,10.12h-8.38Z"/>
  <path class="cls-1" d="M189.03,30.72c2.24,1.21,4.75,1.81,7.54,1.81s5.3-.6,7.52-1.81c2.22-1.2,3.98-2.86,5.26-4.97,1.28-2.11,1.92-4.48,1.92-7.12s-.64-5.01-1.92-7.12c-1.28-2.11-3.03-3.76-5.26-4.97-2.23-1.2-4.73-1.8-7.52-1.8s-5.3.6-7.54,1.8c-2.24,1.21-3.99,2.86-5.26,4.97-1.26,2.11-1.9,4.49-1.9,7.12s.63,5.01,1.9,7.12c1.27,2.11,3.02,3.77,5.26,4.97ZM189.38,14.49c.71-1.28,1.7-2.28,2.96-3,1.26-.72,2.67-1.07,4.23-1.07s2.97.36,4.23,1.07c1.25.72,2.24,1.72,2.96,3,.72,1.29,1.08,2.74,1.08,4.38s-.36,3.1-1.08,4.38c-.72,1.28-1.71,2.28-2.96,3-1.26.72-2.67,1.08-4.23,1.08s-2.97-.36-4.23-1.08c-1.26-.72-2.25-1.72-2.96-3-.72-1.29-1.07-2.74-1.07-4.38s.36-3.09,1.07-4.38Z"/>
  <path class="cls-1" d="M302.51,41.29h-4.02c-.69,0-1.25.57-1.25,1.26v4.03c0,.69.56,1.25,1.25,1.25h4.02c.69,0,1.26-.56,1.26-1.25v-4.03c0-.69-.57-1.26-1.26-1.26ZM303.02,46.57l-.51.51h-4.02l-.52-.51v-4.03l.52-.51h4.02l.51.51v4.03Z"/>
  <polygon class="cls-1" points="224.95 41.29 218.73 41.29 218.73 68.16 238.42 68.16 238.42 63.1 224.95 63.1 224.95 41.29"/>
  <polygon class="cls-1" points="239.35 46.36 247.95 46.36 247.95 68.16 254.17 68.16 254.17 46.36 262.77 46.36 262.77 41.29 239.35 41.29 239.35 46.36"/>
  <path class="cls-1" d="M197.1,41.29l-11.98,26.87h6.37l2.38-5.76h12.48l2.38,5.76h6.53l-12.01-26.87h-6.15ZM195.88,57.68l4.26-10.29,4.26,10.29h-8.52Z"/>
  <path class="cls-1" d="M234.33,17.89c1.11-.58,1.97-1.37,2.59-2.38.62-1.01.92-2.15.92-3.44,0-2.11-.86-3.79-2.59-5.02-1.72-1.23-4.19-1.85-7.41-1.85h-12.91v26.87h13.66c3.44,0,6.07-.62,7.87-1.87,1.8-1.25,2.7-3.03,2.7-5.34,0-1.63-.42-3.01-1.28-4.13-.86-1.12-2.04-2.37-3.55-2.85ZM221.01,9.81h6.07c1.51,0,2.65.26,3.44.77.78.52,1.17,1.29,1.17,2.32s-.39,1.81-1.17,2.34c-.78.53-1.92.79-3.44.79h-6.07v-6.23ZM231.78,26.68c-.82.53-2.03.79-3.64.79h-7.13v-6.53h7.13c3.25,0,4.87,1.09,4.87,3.28,0,1.11-.41,1.92-1.23,2.45Z"/>
</svg>