<?xml version="1.0" encoding="UTF-8"?>
<svg id="Layer_1" data-name="Layer 1" xmlns="http://www.w3.org/2000/svg" version="1.1" viewBox="0 0 432.61 249.9">
  <defs>
    <style>
      .cls-1 {
        fill: #eaeae6;
        stroke-width: 0px;
      }
    </style>
  </defs>
  <g>
    <g>
      <polygon class="cls-1" points="146.95 18.03 2.35 11.81 2.35 13.05 146.95 19.27 215.68 15.6 289.08 16.75 430.25 4.14 430.25 2.89 146.95 18.03"/>
      <polygon class="cls-1" points="284.95 37.03 264.39 38.13 139.24 31.52 2.35 44.52 2.35 45.77 139.27 32.75 252.66 38.75 216.22 40.7 142.82 39.55 2.35 52.1 2.35 53.37 284.95 38.27 430.25 44.51 430.25 43.27 284.95 37.03"/>
      <polygon class="cls-1" points="291.97 52.57 2.35 67.63 2.35 68.77 2.36 68.87 256.89 55.63 430.25 68.25 430.25 61.57 291.97 52.57"/>
    </g>
    <g>
      <path class="cls-1" d="M125.58,231.79c-.99-.45-2.18-.67-3.57-.67h-6.45v15.66h2.91v-4.52h3.54c1.39,0,2.58-.22,3.57-.67.99-.45,1.76-1.09,2.29-1.92.54-.84.81-1.83.81-2.98s-.27-2.14-.81-2.98-1.3-1.48-2.29-1.93ZM124.77,238.98c-.65.55-1.62.82-2.9.82h-3.4v-6.22h3.4c1.28,0,2.25.27,2.9.81.65.54.97,1.31.97,2.3s-.32,1.75-.97,2.29Z"/>
      <path class="cls-1" d="M142.57,231.12l-7.05,15.66h3l1.55-3.63h7.83l1.56,3.63h3.04l-7.07-15.66h-2.86ZM141.05,240.87l2.93-6.86,2.94,6.86h-5.88Z"/>
      <path class="cls-1" d="M171.82,239.85c0,1.61-.34,2.78-1.03,3.51s-1.66,1.1-2.93,1.1-2.25-.37-2.94-1.1c-.69-.73-1.04-1.9-1.04-3.51v-8.73h-2.91v8.84c0,2.28.61,4.03,1.82,5.24,1.22,1.21,2.9,1.81,5.05,1.81s3.81-.6,5.02-1.81c1.22-1.21,1.82-2.95,1.82-5.24v-8.84h-2.86v8.73Z"/>
      <polygon class="cls-1" points="188.6 231.12 185.69 231.12 185.69 246.78 196.79 246.78 196.79 244.32 188.6 244.32 188.6 231.12"/>
      <rect class="cls-1" x="206.04" y="231.12" width="2.91" height="15.66"/>
      <path class="cls-1" d="M229.48,239.04c-.54-.31-1.15-.57-1.81-.76-.66-.19-1.33-.37-2-.53-.67-.16-1.28-.32-1.82-.48-.54-.16-.98-.39-1.32-.68s-.5-.67-.5-1.15c0-.4.11-.76.35-1.07.23-.31.6-.57,1.1-.76.5-.19,1.15-.29,1.96-.29.69,0,1.4.1,2.15.3s1.47.51,2.17.93l.92-2.26c-.69-.45-1.49-.79-2.42-1.03-.93-.24-1.86-.36-2.8-.36-1.43,0-2.62.21-3.55.64-.93.42-1.63.99-2.08,1.7-.46.71-.68,1.49-.68,2.34s.17,1.52.51,2.06c.34.54.79.97,1.33,1.29.54.32,1.15.58,1.81.78.66.2,1.33.38,1.99.53.66.15,1.27.31,1.81.48.54.17.99.4,1.33.69.34.29.52.67.52,1.15,0,.39-.12.73-.36,1.04-.24.31-.61.55-1.12.73-.51.18-1.17.27-1.99.27-.97,0-1.92-.16-2.84-.49-.92-.33-1.7-.74-2.33-1.23l-1.01,2.26c.66.55,1.54,1,2.66,1.35,1.12.35,2.29.53,3.51.53,1.43,0,2.62-.21,3.56-.64.94-.43,1.64-.99,2.09-1.7.45-.71.68-1.48.68-2.32s-.17-1.5-.5-2.04-.78-.96-1.32-1.28Z"/>
      <polygon class="cls-1" points="238.89 233.58 244.08 233.58 244.08 246.78 246.99 246.78 246.99 233.58 252.18 233.58 252.18 231.12 238.89 231.12 238.89 233.58"/>
      <path class="cls-1" d="M265.36,231.12l-7.05,15.66h3l1.55-3.63h7.83l1.56,3.63h3.04l-7.07-15.66h-2.87ZM263.84,240.87l2.93-6.86,2.94,6.86h-5.88Z"/>
      <polygon class="cls-1" points="295.26 241.72 286.62 231.12 284.23 231.12 284.23 246.78 287.11 246.78 287.11 236.18 295.75 246.78 298.15 246.78 298.15 231.12 295.26 231.12 295.26 241.72"/>
      <path class="cls-1" d="M321.02,246.78h3.04l-7.07-15.66h-2.87l-7.05,15.66h3l1.55-3.63h7.83l1.56,3.63ZM312.6,240.87l2.93-6.86,2.94,6.86h-5.88Z"/>
    </g>
  </g>
  <g>
    <path class="cls-1" d="M2.36,150.22c0-29.33,26.34-50.8,58.67-50.8s58.54,22.34,58.54,50.8-26.09,50.68-58.67,50.68S2.36,179.56,2.36,150.22ZM61.15,192.54c25.59,0,47.81-17.85,47.81-42.32s-22.09-42.44-47.81-42.44-48.31,17.85-48.31,42.44,22.47,42.32,48.31,42.32Z"/>
    <path class="cls-1" d="M138.54,101.42h40.69c21.84,0,38.2,10.36,38.2,28.96,0,16.6-13.11,26.21-32.08,27.46v1.5c12.11,13.11,22.72,26.21,33.08,39.44h-10.86l-31.58-39.07c-9.36,0-18.47-.25-29.33-2.25,1.75,14.98,1.75,28.34,1.75,41.32h-9.86v-97.36ZM146.78,152.47l1.37,1.37c10.98-1.5,20.85-1.62,30.46-1.62,17.6,0,28.58-7.61,28.58-21.35s-12.23-21.34-29.71-21.34c-9.11,0-18.85-.12-29.33-1.5l-1.5,1.12c1.62,14.85,1.75,28.96.12,43.31Z"/>
    <path class="cls-1" d="M237.15,101.42h9.86c0,29.58,0,58.54-1.75,89.37l1.5,1.37c21.59-1.87,41.32-1.87,60.66-1.87v8.49h-70.28v-97.36Z"/>
    <path class="cls-1" d="M372.09,101.42h10.61l47.56,97.36h-10.24c-5.99-11.48-11.23-22.09-15.35-34.33l-1.37-1.12c-23.34,2-29.21,2.12-51.3,0l-1.5,1.25c-4.12,10.73-9.99,22.97-15.6,34.2h-10.36l47.56-97.36ZM354.86,158.09c18.1-1.87,26.71-2.12,44.56,0l1-1.12c-8.61-15.73-15.85-30.46-21.34-46.81h-3.37c-5.87,16.23-13.23,31.58-21.72,46.68l.87,1.25Z"/>
  </g>
</svg>