<?xml version="1.0" encoding="UTF-8"?>
<svg id="Layer_1" data-name="Layer 1" xmlns="http://www.w3.org/2000/svg" version="1.1" viewBox="0 0 18.8 27.8">
  <defs>
    <style>
      .cls-1 {
        fill: #9f9997;
        stroke-width: 0px;
      }
    </style>
  </defs>
  <path class="cls-1" d="M18.5,9.3c0,1.3-.2,2.4-.6,3.2l-6.5,13.8c-.2.4-.5.7-.9.9s-.8.3-1.2.3-.8-.1-1.2-.3-.7-.5-.8-.9L.8,12.5c-.4-.8-.6-1.9-.6-3.2,0-2.5.9-4.7,2.7-6.5C4.7,1.1,6.9.2,9.4.2s4.7.9,6.5,2.7c1.8,1.8,2.7,3.9,2.7,6.5ZM12.6,12.6c.9-.9,1.3-2,1.3-3.2s-.4-2.3-1.3-3.2-2-1.3-3.2-1.3-2.3.4-3.2,1.3-1.3,2-1.3,3.2.4,2.3,1.3,3.2,2,1.3,3.2,1.3,2.3-.4,3.2-1.3Z"/>
</svg>